<?xml version="1.0" encoding="UTF-8"?>
<svg id="Ebene_1" data-name="Ebene 1" xmlns="http://www.w3.org/2000/svg" viewBox="0 0 416.98 139.28">
  <defs>
    <style>
      .cls-1 {
        fill: #b91818;
      }

      .cls-2 {
        fill: #e0a500;
      }

      .cls-3 {
        fill: #706f6f;
      }

      .cls-4 {
        fill: #4a4a49;
      }
    </style>
  </defs>
  <path class="cls-4" d="M67.79,74.46c-3.27,3.27-7.16,5.82-11.67,7.66-4.51,1.84-9.42,2.76-14.73,2.76s-10.21-.91-14.71-2.73c-4.5-1.82-8.4-4.39-11.72-7.71-3.32-3.32-5.89-7.21-7.73-11.69-1.84-4.48-2.76-9.36-2.76-14.64s.92-10.21,2.76-14.69c1.84-4.48,4.42-8.37,7.73-11.67,3.32-3.3,7.22-5.86,11.72-7.68,4.49-1.82,9.4-2.73,14.71-2.73s10.17,.92,14.69,2.76c4.51,1.84,8.38,4.38,11.62,7.61l-7.21,7.35c-2.36-2.67-5.18-4.77-8.46-6.29-3.28-1.52-6.88-2.29-10.77-2.29s-7.25,.68-10.42,2.05c-3.17,1.37-5.94,3.3-8.3,5.8-2.36,2.5-4.19,5.43-5.49,8.79-1.3,3.36-1.96,7.02-1.96,10.98s.65,7.62,1.96,10.98c1.3,3.36,3.13,6.29,5.49,8.79s5.12,4.43,8.3,5.8c3.17,1.37,6.65,2.05,10.42,2.05s7.49-.76,10.77-2.29c3.28-1.52,6.09-3.62,8.42-6.29l7.35,7.31Z"/>
  <path class="cls-1" d="M23.02,28.66c-2.31,2.45-4.11,5.33-5.39,8.63-1.28,3.3-1.92,6.9-1.92,10.79s.64,7.48,1.92,10.79c1.28,3.3,3.08,6.18,5.39,8.63,2.31,2.45,5.03,4.35,8.15,5.69,3.12,1.34,6.53,2.01,10.23,2.01s7.35-.75,10.58-2.24c3.22-1.5,5.98-3.56,8.26-6.18l7.22,7.18c-3.21,3.21-7.03,5.72-11.46,7.52-4.43,1.81-9.25,2.71-14.47,2.71s-10.03-.9-14.44-2.69c-4.41-1.79-8.25-4.31-11.5-7.57s-5.79-7.08-7.59-11.48c-1.8-4.4-2.71-9.19-2.71-14.37s.9-10.02,2.71-14.42c1.81-4.4,4.34-8.22,7.59-11.46"/>
  <path class="cls-2" d="M23.02,67.51c2.31,2.45,5.03,4.35,8.15,5.69,3.12,1.34,6.53,2.01,10.23,2.01s7.35-.75,10.58-2.24c3.22-1.5,5.98-3.56,8.26-6.18l7.22,7.18c-3.21,3.21-7.03,5.72-11.46,7.52-4.43,1.81-9.25,2.71-14.47,2.71s-10.03-.9-14.44-2.69c-4.41-1.79-8.25-4.31-11.5-7.57"/>
  <g>
    <path class="cls-3" d="M18.15,128.33c-2.03,0-3.78-.41-5.26-1.23-1.48-.82-2.62-2-3.43-3.54-.81-1.53-1.21-3.38-1.21-5.55s.39-3.86,1.17-5.41c.78-1.55,1.87-2.76,3.27-3.64,1.4-.88,3.04-1.32,4.93-1.32s3.42,.4,4.67,1.21c1.25,.81,2.19,1.94,2.84,3.39,.64,1.45,.97,3.19,.97,5.22v.9H9.43v-1.64h15.74l-.82,.66c0-2.49-.58-4.46-1.73-5.9-1.15-1.44-2.84-2.16-5.06-2.16-1.54,0-2.86,.36-3.97,1.09-1.11,.73-1.97,1.72-2.57,2.98-.6,1.26-.9,2.71-.9,4.36v.25c0,1.81,.32,3.36,.97,4.65,.64,1.29,1.56,2.27,2.75,2.94,1.19,.67,2.6,1.01,4.21,1.01,1.18,0,2.34-.19,3.47-.56,1.14-.37,2.25-1.02,3.35-1.95l.86,1.48c-.9,.88-2.05,1.56-3.43,2.03-1.38,.48-2.77,.72-4.17,.72Z"/>
    <path class="cls-3" d="M39.98,128.33c-1.84,0-3.43-.42-4.79-1.27-1.36-.85-2.41-2.06-3.17-3.62s-1.13-3.38-1.13-5.47,.37-3.93,1.11-5.47c.74-1.53,1.79-2.73,3.17-3.58,1.37-.85,2.97-1.27,4.81-1.27s3.46,.47,4.79,1.4c1.33,.93,2.24,2.22,2.73,3.86h-.25v-13.9h1.89v28.98h-1.85v-4.97h.25c-.52,1.62-1.45,2.91-2.77,3.86-1.33,.96-2.93,1.44-4.79,1.44Zm.08-1.73c2.22,0,3.98-.77,5.28-2.3,1.3-1.53,1.95-3.63,1.95-6.29s-.65-4.8-1.95-6.33c-1.3-1.53-3.06-2.3-5.28-2.3s-3.99,.77-5.3,2.3c-1.32,1.54-1.97,3.65-1.97,6.33s.66,4.75,1.97,6.29c1.32,1.54,3.08,2.3,5.3,2.3Z"/>
    <path class="cls-3" d="M63.9,128.33c-1.62,0-2.97-.29-4.05-.86-1.08-.58-1.89-1.43-2.43-2.57-.53-1.14-.8-2.54-.8-4.21v-12.7h1.85v12.54c0,1.29,.18,2.39,.55,3.31,.37,.92,.96,1.61,1.77,2.08,.81,.47,1.84,.7,3.1,.7,1.37,0,2.57-.31,3.6-.95,1.03-.63,1.84-1.48,2.45-2.55,.6-1.07,.9-2.29,.9-3.66v-11.47h1.85v20.02h-1.81v-4.81h.29c-.6,1.62-1.54,2.88-2.79,3.78-1.26,.9-2.75,1.36-4.48,1.36Z"/>
    <path class="cls-3" d="M88.4,128.33c-1.95,0-3.62-.43-5.04-1.29-1.41-.86-2.5-2.08-3.27-3.64-.77-1.56-1.15-3.4-1.15-5.51s.38-3.93,1.15-5.47c.77-1.53,1.86-2.71,3.27-3.54,1.41-.82,3.09-1.23,5.04-1.23,1.26,0,2.48,.24,3.66,.72s2.15,1.16,2.92,2.03l-.86,1.44c-.85-.85-1.78-1.47-2.79-1.87-1.01-.4-1.99-.6-2.92-.6-2.38,0-4.24,.75-5.57,2.24-1.33,1.49-1.99,3.6-1.99,6.31s.66,4.84,1.99,6.37c1.33,1.54,3.17,2.3,5.53,2.3,.96,0,1.94-.2,2.94-.6,1-.4,1.93-1.01,2.78-1.83l.86,1.44c-.77,.85-1.74,1.51-2.92,1.99-1.18,.48-2.38,.72-3.62,.72Z"/>
    <path class="cls-3" d="M105.88,128.33c-1.32,0-2.51-.26-3.6-.78-1.08-.52-1.93-1.22-2.55-2.1-.62-.88-.92-1.86-.92-2.96,0-1.53,.4-2.73,1.21-3.58,.81-.85,2.11-1.45,3.91-1.79,1.79-.34,4.16-.51,7.09-.51h2.38v1.64h-2.3c-1.95,0-3.58,.06-4.91,.19-1.33,.12-2.38,.34-3.17,.64-.78,.3-1.35,.71-1.71,1.23-.36,.52-.54,1.19-.54,2.01,0,1.29,.49,2.32,1.46,3.1,.97,.78,2.23,1.17,3.76,1.17,1.32,0,2.49-.31,3.54-.93,1.04-.62,1.86-1.45,2.47-2.49s.91-2.21,.91-3.49v-4.77c0-1.89-.44-3.29-1.32-4.19-.88-.9-2.22-1.36-4.03-1.36-1.26,0-2.45,.18-3.58,.53-1.12,.36-2.29,.93-3.49,1.73l-.86-1.6c.74-.49,1.55-.92,2.42-1.27,.88-.36,1.78-.63,2.71-.82,.93-.19,1.85-.29,2.75-.29,1.53,0,2.84,.26,3.93,.78,1.08,.52,1.91,1.32,2.49,2.38s.86,2.44,.86,4.11v13.07h-1.81v-4.81h.25c-.33,.96-.84,1.83-1.52,2.61-.69,.78-1.52,1.4-2.51,1.85s-2.1,.68-3.33,.68Z"/>
    <path class="cls-3" d="M129.51,128.33c-2.08,0-3.67-.59-4.75-1.77-1.08-1.18-1.62-2.84-1.62-4.97v-12h-4.07v-1.6h4.07v-6.21h1.85v6.21h7.07v1.6h-7.07v11.63c0,1.78,.37,3.12,1.11,4.03,.74,.9,1.92,1.36,3.54,1.36,.58,0,1.12-.06,1.62-.19,.51-.12,.95-.28,1.34-.47l.41,1.6c-.33,.22-.84,.4-1.52,.55-.69,.15-1.34,.23-1.97,.23Z"/>
    <path class="cls-3" d="M136.5,102.43v-2.71h2.71v2.71h-2.71Zm.41,25.57v-20.02h1.85v20.02h-1.85Z"/>
    <path class="cls-3" d="M154.18,128.33c-1.86,0-3.48-.43-4.85-1.29-1.37-.86-2.43-2.07-3.19-3.62s-1.13-3.36-1.13-5.45,.38-3.9,1.13-5.45c.75-1.55,1.82-2.75,3.19-3.6,1.37-.85,2.99-1.27,4.85-1.27s3.48,.43,4.85,1.27c1.37,.85,2.43,2.05,3.17,3.6,.74,1.55,1.11,3.36,1.11,5.45s-.37,3.9-1.11,5.45c-.74,1.55-1.8,2.75-3.17,3.62-1.37,.86-2.99,1.29-4.85,1.29Zm-.04-1.73c2.25,0,4.02-.77,5.32-2.3,1.3-1.53,1.95-3.64,1.95-6.33s-.65-4.75-1.95-6.29c-1.3-1.53-3.06-2.3-5.28-2.3s-3.99,.77-5.3,2.3c-1.32,1.54-1.97,3.63-1.97,6.29s.66,4.8,1.97,6.33c1.32,1.54,3.07,2.3,5.26,2.3Z"/>
    <path class="cls-3" d="M169.55,128v-20.02h1.81v4.73h-.25c.6-1.64,1.57-2.9,2.9-3.76s2.86-1.29,4.58-1.29,3.01,.27,4.09,.82c1.08,.55,1.89,1.39,2.43,2.53,.53,1.14,.8,2.56,.8,4.25v12.74h-1.89v-12.58c0-1.32-.18-2.42-.53-3.31-.36-.89-.93-1.57-1.73-2.03-.79-.47-1.85-.7-3.17-.7-1.43,0-2.68,.31-3.76,.93-1.08,.62-1.93,1.46-2.53,2.53s-.9,2.29-.9,3.66v11.51h-1.85Z"/>
    <path class="cls-3" d="M212.06,128.33c-1.95,0-3.62-.43-5.04-1.29-1.41-.86-2.5-2.08-3.27-3.64-.77-1.56-1.15-3.4-1.15-5.51s.38-3.93,1.15-5.47c.77-1.53,1.86-2.71,3.27-3.54,1.41-.82,3.09-1.23,5.04-1.23,1.26,0,2.48,.24,3.66,.72s2.15,1.16,2.92,2.03l-.86,1.44c-.85-.85-1.78-1.47-2.79-1.87-1.01-.4-1.99-.6-2.92-.6-2.38,0-4.24,.75-5.57,2.24-1.33,1.49-1.99,3.6-1.99,6.31s.66,4.84,1.99,6.37c1.33,1.54,3.17,2.3,5.53,2.3,.96,0,1.94-.2,2.94-.6,1-.4,1.93-1.01,2.78-1.83l.86,1.44c-.77,.85-1.74,1.51-2.92,1.99-1.18,.48-2.38,.72-3.62,.72Z"/>
    <path class="cls-3" d="M231.71,128.33c-2.03,0-3.78-.41-5.26-1.23-1.48-.82-2.62-2-3.43-3.54-.81-1.53-1.21-3.38-1.21-5.55s.39-3.86,1.17-5.41c.78-1.55,1.87-2.76,3.27-3.64,1.4-.88,3.04-1.32,4.93-1.32s3.42,.4,4.67,1.21c1.25,.81,2.19,1.94,2.84,3.39,.64,1.45,.97,3.19,.97,5.22v.9h-16.65v-1.64h15.74l-.82,.66c0-2.49-.58-4.46-1.73-5.9-1.15-1.44-2.84-2.16-5.06-2.16-1.54,0-2.86,.36-3.97,1.09-1.11,.73-1.97,1.72-2.57,2.98-.6,1.26-.9,2.71-.9,4.36v.25c0,1.81,.32,3.36,.97,4.65,.64,1.29,1.56,2.27,2.75,2.94,1.19,.67,2.6,1.01,4.21,1.01,1.18,0,2.34-.19,3.47-.56,1.14-.37,2.25-1.02,3.35-1.95l.86,1.48c-.9,.88-2.05,1.56-3.43,2.03-1.38,.48-2.77,.72-4.17,.72Z"/>
    <path class="cls-3" d="M245.77,128v-20.02h1.81v4.52h-.21c.55-1.53,1.44-2.71,2.67-3.51,1.23-.81,2.78-1.27,4.65-1.38l1.19-.08,.21,1.73-1.85,.16c-2.05,.19-3.67,.88-4.85,2.08-1.18,1.19-1.77,2.71-1.77,4.54v11.96h-1.85Z"/>
    <path class="cls-3" d="M268.79,128.33c-2.08,0-3.67-.59-4.75-1.77-1.08-1.18-1.62-2.84-1.62-4.97v-12h-4.07v-1.6h4.07v-6.21h1.85v6.21h7.07v1.6h-7.07v11.63c0,1.78,.37,3.12,1.11,4.03,.74,.9,1.92,1.36,3.54,1.36,.58,0,1.12-.06,1.62-.19,.51-.12,.95-.28,1.34-.47l.41,1.6c-.33,.22-.84,.4-1.52,.55-.69,.15-1.34,.23-1.97,.23Z"/>
    <path class="cls-3" d="M275.77,102.43v-2.71h2.71v2.71h-2.71Zm.41,25.57v-20.02h1.85v20.02h-1.85Z"/>
    <path class="cls-3" d="M286.54,128v-18.42h-4.11v-1.6h4.6l-.49,.62v-1.73c0-2.47,.64-4.35,1.91-5.65,1.27-1.3,3.15-2.03,5.61-2.2l1.52-.08,.21,1.64-2.01,.16c-1.1,.06-2.04,.3-2.84,.74-.79,.44-1.41,1.1-1.85,1.97-.44,.88-.66,2.01-.66,3.41v1.6l-.16-.49h12.5v20.02h-1.85v-18.42h-10.48v18.42h-1.89Zm11.92-25.57v-2.71h2.71v2.71h-2.71Z"/>
    <path class="cls-3" d="M316.47,128.33c-1.95,0-3.62-.43-5.04-1.29-1.41-.86-2.5-2.08-3.27-3.64-.77-1.56-1.15-3.4-1.15-5.51s.38-3.93,1.15-5.47c.77-1.53,1.86-2.71,3.27-3.54,1.41-.82,3.09-1.23,5.04-1.23,1.26,0,2.48,.24,3.66,.72s2.15,1.16,2.92,2.03l-.86,1.44c-.85-.85-1.78-1.47-2.79-1.87-1.01-.4-1.99-.6-2.92-.6-2.38,0-4.24,.75-5.57,2.24-1.33,1.49-1.99,3.6-1.99,6.31s.66,4.84,1.99,6.37c1.33,1.54,3.17,2.3,5.53,2.3,.96,0,1.94-.2,2.94-.6,1-.4,1.93-1.01,2.78-1.83l.86,1.44c-.77,.85-1.74,1.51-2.92,1.99-1.18,.48-2.38,.72-3.62,.72Z"/>
    <path class="cls-3" d="M333.94,128.33c-1.32,0-2.51-.26-3.6-.78-1.08-.52-1.93-1.22-2.55-2.1-.62-.88-.92-1.86-.92-2.96,0-1.53,.4-2.73,1.21-3.58,.81-.85,2.11-1.45,3.91-1.79,1.79-.34,4.16-.51,7.09-.51h2.38v1.64h-2.3c-1.95,0-3.58,.06-4.91,.19-1.33,.12-2.38,.34-3.17,.64-.78,.3-1.35,.71-1.71,1.23-.36,.52-.54,1.19-.54,2.01,0,1.29,.49,2.32,1.46,3.1,.97,.78,2.23,1.17,3.76,1.17,1.32,0,2.49-.31,3.54-.93,1.04-.62,1.86-1.45,2.47-2.49s.91-2.21,.91-3.49v-4.77c0-1.89-.44-3.29-1.32-4.19-.88-.9-2.22-1.36-4.03-1.36-1.26,0-2.45,.18-3.58,.53-1.12,.36-2.29,.93-3.49,1.73l-.86-1.6c.74-.49,1.55-.92,2.42-1.27,.88-.36,1.78-.63,2.71-.82,.93-.19,1.85-.29,2.75-.29,1.53,0,2.84,.26,3.93,.78,1.08,.52,1.91,1.32,2.49,2.38s.86,2.44,.86,4.11v13.07h-1.81v-4.81h.25c-.33,.96-.84,1.83-1.52,2.61-.69,.78-1.52,1.4-2.51,1.85s-2.1,.68-3.33,.68Z"/>
    <path class="cls-3" d="M357.58,128.33c-2.08,0-3.67-.59-4.75-1.77-1.08-1.18-1.62-2.84-1.62-4.97v-12h-4.07v-1.6h4.07v-6.21h1.85v6.21h7.07v1.6h-7.07v11.63c0,1.78,.37,3.12,1.11,4.03,.74,.9,1.92,1.36,3.54,1.36,.58,0,1.12-.06,1.62-.19,.51-.12,.95-.28,1.34-.47l.41,1.6c-.33,.22-.84,.4-1.52,.55-.69,.15-1.34,.23-1.97,.23Z"/>
    <path class="cls-3" d="M364.57,102.43v-2.71h2.71v2.71h-2.71Zm.41,25.57v-20.02h1.85v20.02h-1.85Z"/>
    <path class="cls-3" d="M382.24,128.33c-1.86,0-3.48-.43-4.85-1.29-1.37-.86-2.43-2.07-3.19-3.62s-1.13-3.36-1.13-5.45,.38-3.9,1.13-5.45c.75-1.55,1.82-2.75,3.19-3.6,1.37-.85,2.99-1.27,4.85-1.27s3.48,.43,4.85,1.27c1.37,.85,2.43,2.05,3.17,3.6,.74,1.55,1.11,3.36,1.11,5.45s-.37,3.9-1.11,5.45c-.74,1.55-1.8,2.75-3.17,3.62-1.37,.86-2.99,1.29-4.85,1.29Zm-.04-1.73c2.25,0,4.02-.77,5.32-2.3,1.3-1.53,1.95-3.64,1.95-6.33s-.65-4.75-1.95-6.29c-1.3-1.53-3.06-2.3-5.28-2.3s-3.99,.77-5.3,2.3c-1.32,1.54-1.97,3.63-1.97,6.29s.66,4.8,1.97,6.33c1.32,1.54,3.07,2.3,5.26,2.3Z"/>
    <path class="cls-3" d="M397.62,128v-20.02h1.81v4.73h-.25c.6-1.64,1.57-2.9,2.9-3.76s2.86-1.29,4.58-1.29,3.01,.27,4.09,.82c1.08,.55,1.89,1.39,2.43,2.53,.53,1.14,.8,2.56,.8,4.25v12.74h-1.89v-12.58c0-1.32-.18-2.42-.53-3.31-.36-.89-.93-1.57-1.73-2.03-.79-.47-1.85-.7-3.17-.7-1.43,0-2.68,.31-3.76,.93-1.08,.62-1.93,1.46-2.53,2.53s-.9,2.29-.9,3.66v11.51h-1.85Z"/>
  </g>
  <g>
    <path class="cls-4" d="M83.37,77.42V20.09h35.74v7.41h-27.33v17.16h25.76v7.41h-25.76v17.93h27.71v7.41h-36.12Z"/>
    <path class="cls-4" d="M174.95,77.42h-9.36l-13.11-22.44h-13.95v22.44h-8.41V20.09h22.24c4.28,0,7.95,.7,11.01,2.1s5.41,3.4,7.07,6,2.48,5.71,2.48,9.33c0,4.05-1.03,7.47-3.1,10.24-2.06,2.78-4.98,4.75-8.75,5.92l13.87,23.73Zm-36.42-29.54h13.26c3.92,0,6.99-.9,9.21-2.69,2.22-1.8,3.33-4.3,3.33-7.51s-1.1-5.68-3.31-7.47c-2.2-1.8-5.28-2.69-9.23-2.69h-13.26v20.37Z"/>
    <path class="cls-4" d="M203.73,77.42h-8.41V27.51h-17.93v-7.41h44.26v7.41h-17.93v49.92Z"/>
    <path class="cls-4" d="M277.07,20.09v31.65c0,5.56-.97,10.35-2.92,14.37-1.95,4.03-4.75,7.11-8.39,9.25-3.64,2.14-8,3.21-13.07,3.21s-9.43-1.07-13.07-3.21c-3.64-2.14-6.44-5.22-8.39-9.25-1.95-4.03-2.92-8.82-2.92-14.37V20.09h8.41v30.81c0,4.33,.62,8.01,1.87,11.03,1.25,3.02,3.06,5.31,5.45,6.88,2.38,1.57,5.27,2.35,8.66,2.35s6.27-.78,8.66-2.35,4.2-3.86,5.45-6.88c1.25-3.02,1.87-6.69,1.87-11.03V20.09h8.41Z"/>
    <path class="cls-4" d="M332.91,77.42h-9.36l-13.11-22.44h-13.95v22.44h-8.41V20.09h22.24c4.28,0,7.95,.7,11.01,2.1s5.41,3.4,7.07,6,2.48,5.71,2.48,9.33c0,4.05-1.03,7.47-3.1,10.24-2.06,2.78-4.98,4.75-8.75,5.92l13.87,23.73Zm-36.42-29.54h13.26c3.92,0,6.99-.9,9.21-2.69,2.22-1.8,3.33-4.3,3.33-7.51s-1.1-5.68-3.31-7.47c-2.2-1.8-5.28-2.69-9.23-2.69h-13.26v20.37Z"/>
    <path class="cls-4" d="M340.86,77.42V20.09h8.41v57.33h-8.41Z"/>
    <path class="cls-4" d="M365.06,77.42h-8.83l23.31-57.33h9.02l23.28,57.33h-8.83l-5.73-14.41h-26.49l-5.73,14.41Zm8.6-21.82h20.75l-10.4-26.18-10.36,26.18Z"/>
  </g>
  <path class="cls-4" d="M15.59,22.21c3.26-3.24,7.09-5.76,11.5-7.55,4.41-1.79,9.23-2.69,14.44-2.69s9.99,.9,14.42,2.71c4.43,1.81,8.23,4.3,11.41,7.48l-7.08,7.22c-2.31-2.62-5.09-4.68-8.31-6.18-3.23-1.5-6.75-2.25-10.58-2.25s-7.12,.67-10.23,2.01c-3.12,1.34-5.83,3.24-8.15,5.69"/>
</svg>